<svg version="1.1" id="Layer_1" xmlns="http://www.w3.org/2000/svg" xmlns:xlink="http://www.w3.org/1999/xlink" x="0px" y="0px"
	 width="100%" viewBox="0 0 1254 1254" enable-background="new 0 0 1254 1254" xml:space="preserve">
<path fill="none" opacity="1.000000" stroke="none" 
	d="
M664.000000,1255.000000 
	C442.666656,1255.000000 221.833328,1255.000000 1.000000,1255.000000 
	C1.000000,837.000000 1.000000,419.000000 1.000000,1.000000 
	C419.000000,1.000000 837.000000,1.000000 1255.000000,1.000000 
	C1255.000000,419.000000 1255.000000,837.000000 1255.000000,1255.000000 
	C1058.166626,1255.000000 861.333313,1255.000000 664.000000,1255.000000 
M808.620605,611.216858 
	C809.397827,611.866150 810.174988,612.515442 810.666077,613.844482 
	C793.705200,620.737305 777.123718,619.873962 762.557678,608.702454 
	C746.652100,596.503601 741.144043,579.383911 746.600037,560.224304 
	C753.362915,536.475281 771.981812,528.496643 794.873840,527.663513 
	C799.164673,519.334900 803.546570,511.113892 807.670593,502.765472 
	C816.320801,485.254272 821.358215,466.635101 822.855652,447.245605 
	C824.249207,429.202515 821.791626,411.504852 814.911743,394.603333 
	C809.488647,381.280334 801.541931,369.492676 791.575867,359.275787 
	C781.337280,348.779663 769.198059,340.641876 755.521423,335.249908 
	C746.122742,331.544525 736.529114,328.074127 725.733643,327.197815 
	C725.076233,327.118866 724.418884,326.970764 723.761475,326.970764 
	C638.623352,326.968536 553.485229,326.973206 468.347137,327.026794 
	C467.175415,327.027527 466.004120,327.651581 464.033783,327.984436 
	C449.301483,329.532898 432.922516,347.708405 432.149384,363.355682 
	C432.098572,363.851349 432.003326,364.347046 432.003265,364.842712 
	C431.993835,437.658508 431.990875,510.474304 431.993408,583.290100 
	C431.993439,584.286499 432.066803,585.282898 432.105927,586.279297 
	C432.841522,586.169556 433.577087,586.059814 434.897278,585.694031 
	C444.754822,576.818054 454.176697,567.390076 464.567535,559.189880 
	C482.049591,545.393311 500.175598,532.414490 517.971558,519.013000 
	C524.946960,513.760132 530.247986,507.419983 530.879761,497.571625 
	C530.864380,486.036682 530.848999,474.501709 530.996033,462.167847 
	C531.341736,460.946350 531.734192,459.735901 532.026001,458.501648 
	C536.157104,441.027557 550.577026,428.988495 568.904480,426.975952 
	C580.732361,426.983337 592.560303,427.011444 604.388184,426.994049 
	C636.203247,426.947327 668.018250,426.881165 700.632141,426.988068 
	C708.476624,428.791229 716.045837,431.955811 721.160889,437.964966 
	C734.506165,453.643188 735.574829,470.410950 725.051636,488.129608 
	C717.377808,501.050385 705.048950,507.424591 689.766418,506.974762 
	C673.451721,506.494568 657.309570,508.182159 641.611755,512.248901 
	C618.544800,518.224670 596.876831,527.675293 576.250916,539.823853 
	C549.440063,555.615234 525.573303,575.047607 503.154327,596.386841 
	C483.585449,615.013306 465.445465,634.970398 449.036804,656.460205 
	C437.450439,671.634399 425.496399,686.554199 414.517578,702.158264 
	C404.256897,716.741699 394.677734,731.844482 385.494049,747.136353 
	C371.842834,769.867249 358.452820,792.771973 345.636902,815.981140 
	C338.018219,829.778381 331.371918,844.147888 324.910736,858.539490 
	C318.018158,873.891968 311.603607,889.473389 305.448486,905.138794 
	C298.857697,921.912903 295.818298,939.466370 299.147247,957.290039 
	C302.351685,974.447205 310.025513,989.371399 324.091553,1000.833557 
	C337.308197,1011.603516 352.072784,1017.243896 369.317078,1018.829956 
	C370.143799,1018.893250 370.970551,1019.011841 371.797272,1019.011902 
	C501.232086,1019.022888 630.666870,1019.028259 760.101685,1018.987244 
	C761.434875,1018.986816 762.768005,1018.370972 765.009399,1017.994568 
	C769.086609,1017.665833 773.233276,1017.701599 777.228271,1016.940979 
	C790.024658,1014.504517 802.926208,1012.375305 815.487854,1009.010315 
	C833.035645,1004.309753 849.643311,997.173340 865.603394,988.275635 
	C882.520691,978.844238 898.237610,967.847656 912.491516,954.885376 
	C928.896057,939.967224 943.076904,923.098267 955.257874,904.448914 
	C967.116638,886.292908 976.601318,867.023438 983.915405,846.737122 
	C991.831970,824.779602 996.571533,801.911743 997.798096,778.662476 
	C998.900391,757.769897 999.139465,736.638794 994.854126,715.990784 
	C991.568848,700.161865 987.045776,684.668091 980.528381,669.665466 
	C970.520142,646.627502 956.966125,626.069824 939.531189,608.275757 
	C929.343018,597.877747 917.554138,589.048218 906.292419,579.346863 
	C906.733398,578.660156 907.499878,577.436462 908.295654,576.232056 
	C916.548035,563.742981 925.658630,551.728271 932.872192,538.665833 
	C945.446533,515.895935 954.281616,491.570740 958.045532,465.680359 
	C960.016052,452.126068 962.557922,438.490570 962.666565,424.874359 
	C962.783630,410.196869 961.010376,395.401886 958.839905,380.840302 
	C957.045532,368.801392 954.530029,356.646515 950.418579,345.233002 
	C945.275757,330.956329 939.118713,316.849976 931.648499,303.661957 
	C924.285706,290.663666 915.281372,278.470642 905.961304,266.747894 
	C899.352234,258.435059 891.142029,251.365219 883.429688,243.966614 
	C871.916809,232.922104 858.854492,223.915115 844.838379,216.409988 
	C817.755310,201.908051 789.109375,192.680847 757.690430,191.166946 
	C756.864136,191.102646 756.037842,190.982056 755.211548,190.982025 
	C652.442810,190.976364 549.674011,190.975937 446.905304,191.022354 
	C445.567169,191.022964 444.229279,191.625229 441.990051,191.994125 
	C436.005981,192.656387 429.975616,193.041306 424.046417,194.032028 
	C404.990082,197.216171 387.235077,204.138474 370.752441,214.066757 
	C353.673218,224.354401 338.895447,237.381851 326.996796,253.491379 
	C309.766235,276.819885 299.317444,302.595947 298.147766,332.381622 
	C298.099548,332.877686 298.009094,333.373718 298.009064,333.869781 
	C298.000153,485.615753 297.994843,637.361755 298.041412,789.107727 
	C298.041809,790.354309 298.747894,791.600586 299.811188,792.730164 
	C307.892273,779.428101 315.530640,765.830994 324.154663,752.890808 
	C338.261536,731.723999 352.925598,710.925659 367.525726,690.091797 
	C374.190430,680.581543 381.262817,671.356995 388.885376,661.560303 
	C388.923309,653.520203 389.029755,645.479553 388.958405,637.440430 
	C388.936371,634.955444 388.430328,632.474670 388.012634,629.251221 
	C388.057617,628.502625 388.102600,627.754028 388.887787,626.567566 
	C388.924927,611.907104 388.976288,597.246643 388.963226,582.586243 
	C388.962463,581.726807 388.441528,580.867920 388.304016,579.186707 
	C388.201294,574.363037 387.925537,569.535461 388.032867,564.716492 
	C388.238251,555.495972 388.889008,546.281189 388.927002,537.062317 
	C388.961395,528.711365 388.426208,520.357971 388.884644,511.570282 
	C388.923584,494.229218 388.974548,476.888123 388.965210,459.547089 
	C388.964752,458.697845 388.437012,457.848877 388.013733,456.338623 
	C388.060211,455.892731 388.106689,455.446869 388.891357,454.561920 
	C388.927368,432.564758 388.972992,410.567627 388.963409,388.570496 
	C388.963043,387.712708 388.433716,386.855225 388.012177,385.255524 
	C388.057922,384.504883 388.103699,383.754211 388.889526,382.566101 
	C388.868896,372.431976 388.848297,362.297852 389.000183,351.305573 
	C389.384491,348.419891 389.439362,345.443604 390.204193,342.662567 
	C397.732910,315.286987 414.325653,296.109711 441.560211,286.971924 
	C448.205170,284.742401 455.187042,283.517181 462.939392,281.974182 
	C550.969849,281.981750 639.000244,281.989868 727.030701,281.990265 
	C728.025391,281.990265 729.020081,281.889374 730.867554,281.986176 
	C739.985779,283.353699 749.310059,283.929352 758.183228,286.238617 
	C783.810913,292.908264 806.425537,305.526855 825.291382,324.095276 
	C832.760864,331.447021 839.065002,340.132965 845.081726,348.780609 
	C859.861633,370.023621 866.710266,394.216492 867.685242,419.695618 
	C868.185730,432.775848 866.223816,446.150299 863.801941,459.097595 
	C859.693604,481.060242 850.826599,501.374908 838.900513,520.260864 
	C834.182861,527.731689 828.868713,534.825867 823.783264,542.153320 
	C832.962158,551.838745 837.348694,563.220154 836.929443,576.270874 
	C836.666748,584.451538 833.551270,591.885620 829.187622,598.947571 
	C828.830017,598.969543 828.472412,598.991455 827.841980,598.356750 
	C826.902832,597.727966 825.963684,597.099182 824.578491,596.065430 
	C824.170715,594.829407 823.059937,593.249146 823.469299,592.413330 
	C826.127197,586.985901 828.837646,581.835327 827.147339,575.289917 
	C826.410767,572.437683 828.198364,568.994446 827.703552,566.007812 
	C826.096985,556.309937 820.087341,549.041809 812.594116,543.405090 
	C808.831970,540.575012 803.574646,539.732544 799.000000,538.000000 
	C799.000000,538.000000 799.009338,538.005737 798.552979,537.393188 
	C794.033936,537.155029 789.470093,536.428528 785.010315,536.837036 
	C781.601440,537.149353 778.324219,538.897766 775.000000,540.000000 
	C775.000000,540.000000 775.007690,539.989563 774.272217,540.022522 
	C768.721802,542.242493 764.566589,545.729431 760.881287,550.736145 
	C755.616516,557.888794 754.241760,565.379883 754.872742,573.776978 
	C755.001221,575.486450 754.312012,577.257385 754.084717,578.109253 
	C754.084717,575.450317 754.084717,572.791382 754.084717,570.132446 
	C753.595337,570.172729 753.105957,570.213013 752.616577,570.253357 
	C753.077759,573.168884 753.538879,576.084473 754.040771,579.832703 
	C756.131226,585.494019 758.034424,591.237549 760.456787,596.753113 
	C760.995605,597.979980 763.578308,598.158325 764.832336,599.260498 
	C766.360962,600.604126 767.175537,602.901489 768.830688,603.934509 
	C774.876404,607.708069 781.036926,611.205444 788.776428,609.154663 
	C790.642578,608.660156 792.904480,609.737244 794.996826,609.987549 
	C796.209351,610.132690 797.696350,610.528015 798.628235,610.019531 
	C802.076782,608.138062 805.099731,608.977234 808.620605,611.216858 
z"/>
<path fill="#5DEDF8" opacity="1.000000" stroke="none" 
	d="
M368.907471,1018.044739 
	C352.072784,1017.243896 337.308197,1011.603516 324.091553,1000.833557 
	C310.025513,989.371399 302.351685,974.447205 299.147247,957.290039 
	C295.818298,939.466370 298.857697,921.912903 305.448486,905.138794 
	C311.603607,889.473389 318.018158,873.891968 324.910736,858.539490 
	C331.371918,844.147888 338.018219,829.778381 345.636902,815.981140 
	C358.452820,792.771973 371.842834,769.867249 385.494049,747.136353 
	C394.677734,731.844482 404.256897,716.741699 414.517578,702.158264 
	C425.496399,686.554199 437.450439,671.634399 449.036804,656.460205 
	C465.445465,634.970398 483.585449,615.013306 503.154327,596.386841 
	C525.573303,575.047607 549.440063,555.615234 576.250916,539.823853 
	C596.876831,527.675293 618.544800,518.224670 641.611755,512.248901 
	C657.309570,508.182159 673.451721,506.494568 689.766418,506.974762 
	C705.048950,507.424591 717.377808,501.050385 725.051636,488.129608 
	C735.574829,470.410950 734.506165,453.643188 721.160889,437.964966 
	C716.045837,431.955811 708.476624,428.791229 700.129639,426.741150 
	C699.436829,426.315552 699.232239,426.155090 698.694458,425.743530 
	C697.237244,425.314850 696.099121,425.016602 694.960815,425.015930 
	C653.409912,424.991394 611.859070,424.993317 570.308167,425.001770 
	C569.335083,425.001953 568.362000,425.119293 567.388916,425.182007 
	C567.466125,425.423431 567.504944,425.689178 567.636230,425.896332 
	C567.705139,426.005035 567.935974,426.011139 568.060059,426.257355 
	C568.026489,426.451141 567.966248,426.839874 567.966248,426.839874 
	C550.577026,428.988495 536.157104,441.027557 532.026001,458.501648 
	C531.734192,459.735901 531.341736,460.946350 530.690674,462.918610 
	C530.302490,475.115082 530.219666,486.560791 530.136841,498.006500 
	C530.247986,507.419983 524.946960,513.760132 517.971558,519.013000 
	C500.175598,532.414490 482.049591,545.393311 464.567535,559.189880 
	C454.176697,567.390076 444.754822,576.818054 434.213165,585.626465 
	C433.335297,580.597839 432.976135,575.636902 432.972748,570.675781 
	C432.925446,501.427887 432.926788,432.179962 432.916290,362.932068 
	C432.922516,347.708405 449.301483,329.532898 464.822876,328.016968 
	C466.131226,328.085846 466.650482,328.122223 467.482056,328.398376 
	C469.110352,328.759735 470.426270,328.987457 471.742279,328.987701 
	C553.178894,329.003387 634.615540,329.005280 716.052185,328.964020 
	C717.646851,328.963226 719.241272,328.436523 721.279541,328.133362 
	C723.206299,328.069061 724.689392,328.026520 726.172424,327.984009 
	C736.529114,328.074127 746.122742,331.544525 755.521423,335.249908 
	C769.198059,340.641876 781.337280,348.779663 791.575867,359.275787 
	C801.541931,369.492676 809.488647,381.280334 814.911743,394.603333 
	C821.791626,411.504852 824.249207,429.202515 822.855652,447.245605 
	C821.358215,466.635101 816.320801,485.254272 807.670593,502.765472 
	C803.546570,511.113892 799.164673,519.334900 794.873840,527.663513 
	C771.981812,528.496643 753.362915,536.475281 746.600037,560.224304 
	C741.144043,579.383911 746.652100,596.503601 762.557678,608.702454 
	C777.123718,619.873962 793.705200,620.737305 811.090088,613.539001 
	C812.014465,613.484802 812.514771,613.736084 813.255127,614.222412 
	C834.926392,627.476196 854.663879,642.450623 869.664429,663.276184 
	C870.472107,664.411438 871.175537,665.285156 871.911987,666.112183 
	C871.945068,666.065491 871.840271,666.111511 871.925049,666.452576 
	C875.005554,671.859619 878.001343,676.925598 881.022339,682.276855 
	C881.161682,682.715149 881.275940,682.868225 881.478882,683.349487 
	C883.581909,688.573486 885.848022,693.382507 887.569031,698.379272 
	C897.551819,727.362671 899.377930,756.851746 892.976868,786.877869 
	C888.269592,808.959045 879.258057,829.141968 866.865234,847.894348 
	C866.912048,847.907715 866.868469,847.820618 866.608337,847.995361 
	C865.826050,849.064697 865.303894,849.959290 864.829346,850.869202 
	C864.876831,850.884583 864.838135,850.792419 864.562317,850.965332 
	C863.438538,852.391602 862.590576,853.645020 861.456238,855.058594 
	C849.232910,870.443298 834.671509,882.614258 817.671143,892.422729 
	C795.193787,904.416565 771.547180,910.101624 746.401917,910.080627 
	C669.796814,910.016541 593.191589,910.064697 516.586487,910.152527 
	C509.379517,910.160767 502.329742,911.322937 496.163330,915.717651 
	C496.075684,915.706970 495.991638,915.862183 495.660339,915.956177 
	C488.831146,920.487793 484.730164,926.399963 483.756561,934.650208 
	C485.141479,934.750366 486.266235,934.903076 487.391022,934.903015 
	C574.839478,934.898193 662.288635,935.068787 749.735962,934.750793 
	C775.875732,934.655762 800.872864,928.681641 824.400757,916.050293 
	C839.979309,907.869080 853.905090,897.947266 866.003723,885.618530 
	C895.703247,855.353821 912.980164,818.940369 918.402527,777.045776 
	C925.657349,720.993835 910.399475,672.057678 870.968201,631.050537 
	C858.764038,618.358582 844.304626,608.618286 829.719727,599.016724 
	C833.551270,591.885620 836.666748,584.451538 836.929443,576.270874 
	C837.348694,563.220154 832.962158,551.838745 823.783264,542.153320 
	C828.868713,534.825867 834.182861,527.731689 838.900513,520.260864 
	C850.826599,501.374908 859.693604,481.060242 863.801941,459.097595 
	C866.223816,446.150299 868.185730,432.775848 867.685242,419.695618 
	C866.710266,394.216492 859.861633,370.023621 845.081726,348.780609 
	C839.065002,340.132965 832.760864,331.447021 825.291382,324.095276 
	C806.425537,305.526855 783.810913,292.908264 758.183228,286.238617 
	C749.310059,283.929352 739.985779,283.353699 730.428101,281.710358 
	C729.988647,281.434540 729.964050,281.033417 730.264709,281.012329 
	C730.921387,280.780701 731.277405,280.570160 731.633423,280.359619 
	C731.539673,280.264832 731.448547,280.090332 731.351929,280.087250 
	C730.022888,280.044373 728.693054,280.003204 727.363464,280.003143 
	C640.009583,279.998627 552.655762,279.997192 465.301910,280.004517 
	C463.993591,280.004639 462.685242,280.118530 461.376923,280.179321 
	C461.445923,280.422394 461.475098,280.689331 461.600342,280.898712 
	C461.664612,281.006195 461.900513,281.011047 462.047913,281.254272 
	C462.037048,281.446289 462.014008,281.830231 462.014008,281.830231 
	C455.187042,283.517181 448.205170,284.742401 441.560211,286.971924 
	C414.325653,296.109711 397.732910,315.286987 390.204193,342.662567 
	C389.439362,345.443604 389.384491,348.419891 388.718323,352.076355 
	C388.340790,362.899292 388.245117,372.951416 388.149445,383.003571 
	C388.103699,383.754211 388.057922,384.504883 388.036255,386.091492 
	C388.091278,409.618652 388.122223,432.309814 388.153198,455.000977 
	C388.106689,455.446869 388.060211,455.892731 388.038361,457.133972 
	C388.089386,475.954803 388.115784,493.980225 388.142181,512.005676 
	C388.426208,520.357971 388.961395,528.711365 388.927002,537.062317 
	C388.889008,546.281189 388.238251,555.495972 388.032867,564.716492 
	C387.925537,569.535461 388.201294,574.363037 388.188171,580.062012 
	C388.097412,596.293335 388.122467,611.649414 388.147552,627.005432 
	C388.102600,627.754028 388.057617,628.502625 388.031891,630.086792 
	C388.084198,641.282471 388.117249,651.642700 388.150299,662.002869 
	C381.262817,671.356995 374.190430,680.581543 367.525726,690.091797 
	C352.925598,710.925659 338.261536,731.723999 324.154663,752.890808 
	C315.530640,765.830994 307.892273,779.428101 299.428955,792.330872 
	C299.030029,710.935486 299.019043,629.939392 298.994873,548.943298 
	C298.973297,476.614105 298.937225,404.284943 298.907593,331.955750 
	C299.317444,302.595947 309.766235,276.819885 326.996796,253.491379 
	C338.895447,237.381851 353.673218,224.354401 370.752441,214.066757 
	C387.235077,204.138474 404.990082,197.216171 424.046417,194.032028 
	C429.975616,193.041306 436.005981,192.656387 442.522888,191.985443 
	C443.055756,191.976761 443.185181,192.082413 443.483673,192.343491 
	C445.261932,192.736725 446.741699,192.984283 448.221497,192.984589 
	C548.996460,193.004913 649.771484,193.009674 750.546448,192.972565 
	C752.308350,192.971909 754.070129,192.446991 756.211182,192.132172 
	C757.095642,192.048553 757.600830,191.999481 758.106018,191.950439 
	C789.109375,192.680847 817.755310,201.908051 844.838379,216.409988 
	C858.854492,223.915115 871.916809,232.922104 883.429688,243.966614 
	C891.142029,251.365219 899.352234,258.435059 905.961304,266.747894 
	C915.281372,278.470642 924.285706,290.663666 931.648499,303.661957 
	C939.118713,316.849976 945.275757,330.956329 950.418579,345.233002 
	C954.530029,356.646515 957.045532,368.801392 958.839905,380.840302 
	C961.010376,395.401886 962.783630,410.196869 962.666565,424.874359 
	C962.557922,438.490570 960.016052,452.126068 958.045532,465.680359 
	C954.281616,491.570740 945.446533,515.895935 932.872192,538.665833 
	C925.658630,551.728271 916.548035,563.742981 908.295654,576.232056 
	C907.499878,577.436462 906.733398,578.660156 906.292419,579.346863 
	C917.554138,589.048218 929.343018,597.877747 939.531189,608.275757 
	C956.966125,626.069824 970.520142,646.627502 980.528381,669.665466 
	C987.045776,684.668091 991.568848,700.161865 994.854126,715.990784 
	C999.139465,736.638794 998.900391,757.769897 997.798096,778.662476 
	C996.571533,801.911743 991.831970,824.779602 983.915405,846.737122 
	C976.601318,867.023438 967.116638,886.292908 955.257874,904.448914 
	C943.076904,923.098267 928.896057,939.967224 912.491516,954.885376 
	C898.237610,967.847656 882.520691,978.844238 865.603394,988.275635 
	C849.643311,997.173340 833.035645,1004.309753 815.487854,1009.010315 
	C802.926208,1012.375305 790.024658,1014.504517 777.228271,1016.940979 
	C773.233276,1017.701599 769.086609,1017.665833 764.081421,1017.984192 
	C727.343140,1017.990051 691.532776,1018.015869 655.722473,1018.020691 
	C560.117493,1018.033508 464.512482,1018.037292 368.907471,1018.044739 
M661.209229,717.950684 
	C661.094543,714.325500 660.979797,710.700317 661.054993,706.145508 
	C660.533325,692.497986 660.148376,678.842957 659.401672,665.207764 
	C659.193909,661.413147 660.067871,658.842407 662.981384,656.206970 
	C669.023499,650.741577 674.854431,644.978210 680.240356,638.868530 
	C686.654846,631.591980 692.203735,623.634094 693.979553,613.758118 
	C695.408875,605.808899 692.603943,602.613342 684.912170,604.450500 
	C678.683411,605.938354 672.099060,607.713867 666.853882,611.160034 
	C657.022705,617.619263 648.119873,625.478699 638.649231,632.511169 
	C636.884949,633.821289 634.163330,634.816040 632.061768,634.549744 
	C606.978455,631.371033 581.930115,627.916809 556.866821,624.578430 
	C555.616089,624.411804 553.934387,624.142700 553.095520,624.774292 
	C548.353699,628.344543 543.808105,632.175354 538.605530,636.396118 
	C560.135437,647.010315 580.889282,657.241943 600.987000,667.150085 
	C589.188477,679.333557 577.535156,691.447998 565.717041,703.399536 
	C564.877380,704.248657 562.710693,704.367126 561.358948,704.030457 
	C554.415955,702.301575 547.562927,700.210815 540.617798,698.491638 
	C539.045471,698.102356 536.855957,698.116150 535.604065,698.938904 
	C532.601013,700.912292 529.986145,703.476318 526.799072,706.150696 
	C535.619629,712.475769 544.029175,718.381165 552.272217,724.510437 
	C554.183594,725.931702 555.885864,727.911865 557.070496,729.985535 
	C562.578369,739.627075 567.870544,749.391785 573.156128,758.960632 
	C581.576782,754.903198 585.712219,749.075867 582.417419,739.804199 
	C582.362488,739.649536 582.373840,739.472534 582.328735,739.313171 
	C579.353821,728.807373 581.703918,721.183105 591.871948,715.069824 
	C602.887268,708.447021 612.680786,699.792053 623.386597,691.737915 
	C631.345642,714.390625 639.124084,736.529541 647.070496,759.146362 
	C651.704346,754.885986 655.820374,751.250977 659.732483,747.408325 
	C660.815247,746.344727 661.953918,744.655823 661.937317,743.267334 
	C661.840027,735.123413 661.407898,726.983521 661.209229,717.950684 
M615.644043,835.498230 
	C617.296631,835.985535 618.948486,836.895325 620.601990,836.898438 
	C662.795349,836.979065 704.988892,836.973694 747.182373,836.933228 
	C748.784180,836.931702 750.385437,836.430176 752.832275,836.008484 
	C757.713501,835.034851 762.647400,834.269104 767.465942,833.048157 
	C781.529541,829.484497 792.991333,821.802246 803.149231,811.462891 
	C817.424316,796.932861 824.470825,779.144714 826.783325,759.590027 
	C828.850525,742.109009 824.617371,725.768982 813.239258,711.666687 
	C800.064758,695.337830 784.122803,685.925537 762.231628,688.964905 
	C738.499329,692.259827 721.448120,712.055054 721.001465,735.641418 
	C720.938599,738.961060 721.412476,742.398865 720.716370,745.580322 
	C717.194763,761.676147 707.994324,773.925232 694.510376,783.157776 
	C677.228943,794.990417 660.081604,807.022034 642.683960,818.680542 
	C634.050293,824.466187 624.986145,829.609375 615.644043,835.498230 
M364.003296,911.454773 
	C362.837006,912.395447 361.615326,913.275757 360.512817,914.286011 
	C345.580597,927.968262 343.456390,951.570007 355.765350,966.822266 
	C369.031555,983.260559 392.166962,986.824890 409.095490,975.038452 
	C425.973419,963.287231 430.854065,940.694214 419.935577,923.281555 
	C417.244781,918.990356 413.399170,915.423218 409.684143,911.052185 
	C419.081451,895.012695 428.575745,878.612427 438.276581,862.335388 
	C442.880280,854.610840 442.848267,850.362915 437.488312,846.781616 
	C432.077728,843.166443 427.374664,844.691101 422.650452,852.493896 
	C412.912170,868.578125 403.446228,884.828369 394.001160,901.087524 
	C392.715485,903.300781 391.665955,904.598999 388.742798,904.404480 
	C379.991180,903.822021 371.962036,906.326355 364.003296,911.454773 
M518.385559,742.871216 
	C509.300568,751.422241 500.145752,759.900818 491.161865,768.556702 
	C487.037933,772.530212 487.001862,777.584106 490.635986,781.388550 
	C494.599335,785.537659 499.665466,785.787231 503.871399,781.854431 
	C513.713501,772.651306 523.508240,763.397217 533.279114,754.118469 
	C536.840576,750.736328 536.988831,745.624878 533.617065,742.103760 
	C529.275757,737.570312 523.209229,736.976440 518.385559,742.871216 
M456.655731,807.153931 
	C452.867676,811.778320 449.054657,816.382507 445.298492,821.032715 
	C441.435577,825.815002 441.612946,830.307190 445.724365,833.673706 
	C450.268524,837.394592 455.404724,836.833191 459.259491,832.217346 
	C466.496582,823.551331 473.727997,814.880432 480.994812,806.239380 
	C484.834686,801.673279 484.807251,796.990417 480.830078,793.585693 
	C476.608643,789.971863 471.460480,790.341553 467.625610,794.623413 
	C464.080109,798.582092 460.613739,802.611633 456.655731,807.153931 
z"/>
<path fill="#032932" opacity="1.000000" stroke="none" 
	d="
M881.390137,683.021240 
	C881.275940,682.868225 881.161682,682.715149 881.258301,682.049377 
	C879.693420,677.586792 878.118896,673.526672 876.043030,669.741394 
	C875.209045,668.220520 873.274109,667.303406 871.840271,666.111511 
	C871.840271,666.111511 871.945068,666.065491 871.933594,665.769653 
	C871.134827,664.654114 870.347534,663.834412 869.560303,663.014648 
	C854.663879,642.450623 834.926392,627.476196 813.390076,613.913330 
	C816.073486,611.304810 819.109619,609.496338 821.580750,607.104126 
	C824.052856,604.711060 825.960022,601.734314 828.114868,599.013428 
	C828.472412,598.991455 828.830017,598.969543 829.453674,598.982178 
	C844.304626,608.618286 858.764038,618.358582 870.968201,631.050537 
	C910.399475,672.057678 925.657349,720.993835 918.402527,777.045776 
	C912.980164,818.940369 895.703247,855.353821 866.003723,885.618530 
	C853.905090,897.947266 839.979309,907.869080 824.244385,915.779602 
	C822.280579,915.659851 820.698792,915.401550 819.381592,915.876648 
	C808.049988,919.963806 796.964417,924.888123 785.405579,928.141968 
	C776.047363,930.776306 766.139282,931.464050 756.467468,932.966370 
	C755.498779,933.116821 754.474121,932.969360 753.481140,932.889404 
	C750.019287,932.610474 746.560791,932.054688 743.099548,932.042419 
	C720.955933,931.963989 698.811951,932.002502 676.668091,932.002380 
	C615.231384,932.002136 553.794678,932.011536 492.358002,931.949768 
	C490.681824,931.948059 489.006409,931.180298 487.330627,930.769775 
	C488.071442,929.067993 488.635681,927.258911 489.589722,925.686462 
	C491.616180,922.346497 493.845459,919.129517 495.991638,915.862183 
	C495.991638,915.862183 496.075684,915.706970 496.602478,915.777100 
	C514.898804,909.613342 533.326538,912.614319 551.490662,912.049255 
	C560.574890,911.766663 569.675110,912.000000 578.768127,912.000000 
	C634.564941,912.000000 690.363159,911.770813 746.157715,912.124634 
	C765.608459,912.247986 784.158813,908.623047 802.088074,901.658386 
	C807.745605,899.460754 812.713074,895.486877 817.996277,892.325867 
	C834.671509,882.614258 849.232910,870.443298 861.833008,855.038818 
	C863.276794,853.503418 864.057434,852.147888 864.838135,850.792419 
	C864.838135,850.792419 864.876831,850.884583 865.192261,850.841187 
	C865.961243,849.805420 866.414795,848.812988 866.868408,847.820618 
	C866.868469,847.820618 866.912048,847.907715 867.223511,847.884644 
	C868.489380,847.022583 869.796387,846.367310 870.344116,845.316345 
	C876.468750,833.565247 883.605591,822.180908 888.270996,809.864868 
	C896.916870,787.041077 900.420776,763.310364 898.221741,738.648376 
	C896.593872,720.391357 892.111328,703.120605 885.076782,686.378296 
	C884.492798,684.988342 882.648743,684.127808 881.390137,683.021240 
z"/>
<path fill="#07282F" opacity="1.000000" stroke="none" 
	d="
M798.993530,537.991211 
	C803.574646,539.732544 808.831970,540.575012 812.594116,543.405090 
	C820.087341,549.041809 826.096985,556.309937 827.703552,566.007812 
	C828.198364,568.994446 826.410767,572.437683 827.147339,575.289917 
	C828.837646,581.835327 826.127197,586.985901 823.469299,592.413330 
	C823.059937,593.249146 824.170715,594.829407 824.669983,596.573853 
	C823.275269,597.479004 821.530701,597.509155 820.351013,598.340698 
	C816.695557,600.917480 813.133728,603.663574 809.804443,606.644348 
	C808.793030,607.549866 808.654114,609.429810 808.115601,610.863464 
	C805.099731,608.977234 802.076782,608.138062 798.628235,610.019531 
	C797.696350,610.528015 796.209351,610.132690 794.996826,609.987549 
	C792.904480,609.737244 790.642578,608.660156 788.776428,609.154663 
	C781.036926,611.205444 774.876404,607.708069 768.830688,603.934509 
	C767.175537,602.901489 766.360962,600.604126 764.832336,599.260498 
	C763.578308,598.158325 760.995605,597.979980 760.456787,596.753113 
	C758.034424,591.237549 756.131226,585.494019 754.020386,579.416382 
	C754.000000,579.000000 753.999756,579.000000 753.999756,579.000000 
	C754.312012,577.257385 755.001221,575.486450 754.872742,573.776978 
	C754.241760,565.379883 755.616516,557.888794 760.881287,550.736145 
	C764.566589,545.729431 768.721802,542.242493 774.680908,540.111694 
	C775.089539,540.200928 775.344116,540.244263 775.344116,540.244263 
	C775.344116,540.244263 774.988403,540.007385 774.988403,540.007385 
	C778.324219,538.897766 781.601440,537.149353 785.010315,536.837036 
	C789.470093,536.428528 794.033936,537.155029 798.692017,537.757935 
	C798.831055,538.122620 798.813782,538.353577 798.813782,538.353577 
	C798.813782,538.353577 798.993530,537.991211 798.993530,537.991211 
M810.460327,567.603088 
	C806.122314,557.674683 797.523865,554.030090 787.754578,552.349365 
	C786.681396,553.226807 785.688110,554.446411 784.405823,555.018738 
	C777.980408,557.886536 772.449524,561.530640 771.177185,569.148804 
	C769.679077,578.119385 772.108643,585.547791 779.792480,590.944824 
	C785.762756,595.138184 795.719543,595.454956 801.230286,591.053345 
	C808.562988,585.196411 815.089294,578.785034 811.226501,567.920715 
	C811.226501,567.920715 811.252441,567.615906 811.252441,567.615906 
	C811.252441,567.615906 811.004700,568.006287 810.460327,567.603088 
z"/>
<path fill="#C6F8FB" opacity="1.000000" stroke="none" 
	d="
M298.527649,332.168701 
	C298.937225,404.284943 298.973297,476.614105 298.994873,548.943298 
	C299.019043,629.939392 299.030029,710.935486 299.085602,792.389282 
	C298.747894,791.600586 298.041809,790.354309 298.041412,789.107727 
	C297.994843,637.361755 298.000153,485.615753 298.009064,333.869781 
	C298.009094,333.373718 298.099548,332.877686 298.527649,332.168701 
z"/>
<path fill="#94F0F8" opacity="1.000000" stroke="none" 
	d="
M369.112274,1018.437378 
	C464.512482,1018.037292 560.117493,1018.033508 655.722473,1018.020691 
	C691.532776,1018.015869 727.343140,1017.990051 763.627319,1018.008057 
	C762.768005,1018.370972 761.434875,1018.986816 760.101685,1018.987244 
	C630.666870,1019.028259 501.232086,1019.022888 371.797272,1019.011902 
	C370.970551,1019.011841 370.143799,1018.893250 369.112274,1018.437378 
z"/>
<path fill="#94F0F8" opacity="1.000000" stroke="none" 
	d="
M757.898193,191.558685 
	C757.600830,191.999481 757.095642,192.048553 755.760376,192.099991 
	C651.015320,192.095718 547.100220,192.089066 443.185181,192.082413 
	C443.185181,192.082413 443.055756,191.976761 442.973511,191.961731 
	C444.229279,191.625229 445.567169,191.022964 446.905304,191.022354 
	C549.674011,190.975937 652.442810,190.976364 755.211548,190.982025 
	C756.037842,190.982056 756.864136,191.102646 757.898193,191.558685 
z"/>
<path fill="#85F2F8" opacity="1.000000" stroke="none" 
	d="
M462.476685,281.902222 
	C462.014008,281.830231 462.037048,281.446289 462.510345,281.244690 
	C551.977112,281.039886 640.970581,281.036652 729.964050,281.033417 
	C729.964050,281.033417 729.988647,281.434540 730.001709,281.635071 
	C729.020081,281.889374 728.025391,281.990265 727.030701,281.990265 
	C639.000244,281.989868 550.969849,281.981750 462.476685,281.902222 
z"/>
<path fill="#85F2F8" opacity="1.000000" stroke="none" 
	d="
M467.169769,328.158569 
	C466.650482,328.122223 466.131226,328.085846 465.222290,328.017120 
	C466.004120,327.651581 467.175415,327.027527 468.347137,327.026794 
	C553.485229,326.973206 638.623352,326.968536 723.761475,326.970764 
	C724.418884,326.970764 725.076233,327.118866 725.953003,327.590912 
	C724.689392,328.026520 723.206299,328.069061 720.829773,328.096558 
	C640.840820,328.049347 561.745361,328.013763 482.649872,327.992645 
	C477.489838,327.991272 472.329803,328.100677 467.169769,328.158569 
z"/>
<path fill="#BBF5FB" opacity="1.000000" stroke="none" 
	d="
M432.532837,363.143860 
	C432.926788,432.179962 432.925446,501.427887 432.972748,570.675781 
	C432.976135,575.636902 433.335297,580.597839 433.920868,585.754395 
	C433.577087,586.059814 432.841522,586.169556 432.105927,586.279297 
	C432.066803,585.282898 431.993439,584.286499 431.993408,583.290100 
	C431.990875,510.474304 431.993835,437.658508 432.003265,364.842712 
	C432.003326,364.347046 432.098572,363.851349 432.532837,363.143860 
z"/>
<path fill="#3A4F56" opacity="1.000000" stroke="none" 
	d="
M808.368103,611.040161 
	C808.654114,609.429810 808.793030,607.549866 809.804443,606.644348 
	C813.133728,603.663574 816.695557,600.917480 820.351013,598.340698 
	C821.530701,597.509155 823.275269,597.479004 824.893005,596.776306 
	C825.963684,597.099182 826.902832,597.727966 827.978394,598.685059 
	C825.960022,601.734314 824.052856,604.711060 821.580750,607.104126 
	C819.109619,609.496338 816.073486,611.304810 813.150085,613.678223 
	C812.514771,613.736084 812.014465,613.484802 811.233154,613.199097 
	C810.174988,612.515442 809.397827,611.866150 808.368103,611.040161 
z"/>
<path fill="#BBF5FB" opacity="1.000000" stroke="none" 
	d="
M699.013428,426.012787 
	C699.232239,426.155090 699.436829,426.315552 699.730225,426.658478 
	C668.018250,426.881165 636.203247,426.947327 604.388184,426.994049 
	C592.560303,427.011444 580.732361,426.983337 568.435364,426.907898 
	C567.966248,426.839874 568.026489,426.451141 568.519897,426.253662 
	C612.346741,426.041718 655.680054,426.027252 699.013428,426.012787 
z"/>
<path fill="#D4FAFB" opacity="1.000000" stroke="none" 
	d="
M388.522278,454.781433 
	C388.122223,432.309814 388.091278,409.618652 388.105591,386.462555 
	C388.433716,386.855225 388.963043,387.712708 388.963409,388.570496 
	C388.972992,410.567627 388.927368,432.564758 388.522278,454.781433 
z"/>
<path fill="#D4FAFB" opacity="1.000000" stroke="none" 
	d="
M388.513428,511.787964 
	C388.115784,493.980225 388.089386,475.954803 388.108887,457.464569 
	C388.437012,457.848877 388.964752,458.697845 388.965210,459.547089 
	C388.974548,476.888123 388.923584,494.229218 388.513428,511.787964 
z"/>
<path fill="#D4FAFB" opacity="1.000000" stroke="none" 
	d="
M388.517670,626.786499 
	C388.122467,611.649414 388.097412,596.293335 388.117493,580.473022 
	C388.441528,580.867920 388.962463,581.726807 388.963226,582.586243 
	C388.976288,597.246643 388.924927,611.907104 388.517670,626.786499 
z"/>
<path fill="#D4FAFB" opacity="1.000000" stroke="none" 
	d="
M530.508301,497.789062 
	C530.219666,486.560791 530.302490,475.115082 530.609436,463.318054 
	C530.848999,474.501709 530.864380,486.036682 530.508301,497.789062 
z"/>
<path fill="#D4FAFB" opacity="1.000000" stroke="none" 
	d="
M388.517822,661.781616 
	C388.117249,651.642700 388.084198,641.282471 388.098511,630.457153 
	C388.430328,632.474670 388.936371,634.955444 388.958405,637.440430 
	C389.029755,645.479553 388.923309,653.520203 388.517822,661.781616 
z"/>
<path fill="#D4FAFB" opacity="1.000000" stroke="none" 
	d="
M388.519470,382.784851 
	C388.245117,372.951416 388.340790,362.899292 388.632080,352.505432 
	C388.848297,362.297852 388.868896,372.431976 388.519470,382.784851 
z"/>
<path fill="#07282F" opacity="1.000000" stroke="none" 
	d="
M754.000000,579.000000 
	C753.538879,576.084473 753.077759,573.168884 752.616577,570.253357 
	C753.105957,570.213013 753.595337,570.172729 754.084717,570.132446 
	C754.084717,572.791382 754.084717,575.450317 754.042236,578.554626 
	C753.999756,579.000000 754.000000,579.000000 754.000000,579.000000 
z"/>
<path fill="#000000" opacity="1.000000" stroke="none" 
	d="
M616.116760,835.043335 
	C624.986145,829.609375 634.050293,824.466187 642.683960,818.680542 
	C660.081604,807.022034 677.228943,794.990417 694.510376,783.157776 
	C707.994324,773.925232 717.194763,761.676147 720.716370,745.580322 
	C721.412476,742.398865 720.938599,738.961060 721.001465,735.641418 
	C721.448120,712.055054 738.499329,692.259827 762.231628,688.964905 
	C784.122803,685.925537 800.064758,695.337830 813.239258,711.666687 
	C824.617371,725.768982 828.850525,742.109009 826.783325,759.590027 
	C824.470825,779.144714 817.424316,796.932861 803.149231,811.462891 
	C792.991333,821.802246 781.529541,829.484497 767.465942,833.048157 
	C762.647400,834.269104 757.713501,835.034851 751.946045,836.014160 
	C707.715942,836.013062 664.372192,836.016785 621.028442,835.959351 
	C619.390808,835.957153 617.753967,835.362122 616.116760,835.043335 
z"/>
<path fill="#042A32" opacity="1.000000" stroke="none" 
	d="
M661.088684,718.842224 
	C661.407898,726.983521 661.840027,735.123413 661.937317,743.267334 
	C661.953918,744.655823 660.815247,746.344727 659.732483,747.408325 
	C655.820374,751.250977 651.704346,754.885986 647.070496,759.146362 
	C639.124084,736.529541 631.345642,714.390625 623.386597,691.737915 
	C612.680786,699.792053 602.887268,708.447021 591.871948,715.069824 
	C581.703918,721.183105 579.353821,728.807373 582.328735,739.313171 
	C582.373840,739.472534 582.362488,739.649536 582.417419,739.804199 
	C585.712219,749.075867 581.576782,754.903198 573.156128,758.960632 
	C567.870544,749.391785 562.578369,739.627075 557.070496,729.985535 
	C555.885864,727.911865 554.183594,725.931702 552.272217,724.510437 
	C544.029175,718.381165 535.619629,712.475769 526.799072,706.150696 
	C529.986145,703.476318 532.601013,700.912292 535.604065,698.938904 
	C536.855957,698.116150 539.045471,698.102356 540.617798,698.491638 
	C547.562927,700.210815 554.415955,702.301575 561.358948,704.030457 
	C562.710693,704.367126 564.877380,704.248657 565.717041,703.399536 
	C577.535156,691.447998 589.188477,679.333557 600.987000,667.150085 
	C580.889282,657.241943 560.135437,647.010315 538.605530,636.396118 
	C543.808105,632.175354 548.353699,628.344543 553.095520,624.774292 
	C553.934387,624.142700 555.616089,624.411804 556.866821,624.578430 
	C581.930115,627.916809 606.978455,631.371033 632.061768,634.549744 
	C634.163330,634.816040 636.884949,633.821289 638.649231,632.511169 
	C648.119873,625.478699 657.022705,617.619263 666.853882,611.160034 
	C672.099060,607.713867 678.683411,605.938354 684.912170,604.450500 
	C692.603943,602.613342 695.408875,605.808899 693.979553,613.758118 
	C692.203735,623.634094 686.654846,631.591980 680.240356,638.868530 
	C674.854431,644.978210 669.023499,650.741577 662.981384,656.206970 
	C660.067871,658.842407 659.193909,661.413147 659.401672,665.207764 
	C660.148376,678.842957 660.533325,692.497986 660.730530,706.944702 
	C660.406067,717.013733 660.406067,726.283569 660.406067,735.553406 
	C660.633606,735.555542 660.861145,735.557678 661.088684,735.559814 
	C661.088684,729.987305 661.088684,724.414734 661.088684,718.842224 
z"/>
<path fill="#042930" opacity="1.000000" stroke="none" 
	d="
M364.304749,911.252686 
	C371.962036,906.326355 379.991180,903.822021 388.742798,904.404480 
	C391.665955,904.598999 392.715485,903.300781 394.001160,901.087524 
	C403.446228,884.828369 412.912170,868.578125 422.650452,852.493896 
	C427.374664,844.691101 432.077728,843.166443 437.488312,846.781616 
	C442.848267,850.362915 442.880280,854.610840 438.276581,862.335388 
	C428.575745,878.612427 419.081451,895.012695 409.684143,911.052185 
	C413.399170,915.423218 417.244781,918.990356 419.935577,923.281555 
	C430.854065,940.694214 425.973419,963.287231 409.095490,975.038452 
	C392.166962,986.824890 369.031555,983.260559 355.765350,966.822266 
	C343.456390,951.570007 345.580597,927.968262 360.512817,914.286011 
	C361.615326,913.275757 362.837006,912.395447 364.304749,911.252686 
M375.220093,959.432251 
	C376.716675,960.150513 378.165283,961.000122 379.717285,961.566467 
	C393.505768,966.597839 407.985382,956.101440 406.979858,941.839111 
	C406.301208,932.213196 399.662994,925.067017 389.724609,923.263855 
	C381.248505,921.725952 372.285004,926.306885 368.583588,934.068176 
	C364.233063,943.190613 366.366638,952.005798 375.220093,959.432251 
z"/>
<path fill="#0D3637" opacity="1.000000" stroke="none" 
	d="
M495.660339,915.956177 
	C493.845459,919.129517 491.616180,922.346497 489.589722,925.686462 
	C488.635681,927.258911 488.071442,929.067993 487.330627,930.769775 
	C489.006409,931.180298 490.681824,931.948059 492.358002,931.949768 
	C553.794678,932.011536 615.231384,932.002136 676.668091,932.002380 
	C698.811951,932.002502 720.955933,931.963989 743.099548,932.042419 
	C746.560791,932.054688 750.019287,932.610474 753.481140,932.889404 
	C754.474121,932.969360 755.498779,933.116821 756.467468,932.966370 
	C766.139282,931.464050 776.047363,930.776306 785.405579,928.141968 
	C796.964417,924.888123 808.049988,919.963806 819.381592,915.876648 
	C820.698792,915.401550 822.280579,915.659851 823.895996,915.848816 
	C800.872864,928.681641 775.875732,934.655762 749.735962,934.750793 
	C662.288635,935.068787 574.839478,934.898193 487.391022,934.903015 
	C486.266235,934.903076 485.141479,934.750366 483.756561,934.650208 
	C484.730164,926.399963 488.831146,920.487793 495.660339,915.956177 
z"/>
<path fill="#042A31" opacity="1.000000" stroke="none" 
	d="
M518.646301,742.627014 
	C523.209229,736.976440 529.275757,737.570312 533.617065,742.103760 
	C536.988831,745.624878 536.840576,750.736328 533.279114,754.118469 
	C523.508240,763.397217 513.713501,772.651306 503.871399,781.854431 
	C499.665466,785.787231 494.599335,785.537659 490.635986,781.388550 
	C487.001862,777.584106 487.037933,772.530212 491.161865,768.556702 
	C500.145752,759.900818 509.300568,751.422241 518.646301,742.627014 
z"/>
<path fill="#04282E" opacity="1.000000" stroke="none" 
	d="
M456.884155,806.881958 
	C460.613739,802.611633 464.080109,798.582092 467.625610,794.623413 
	C471.460480,790.341553 476.608643,789.971863 480.830078,793.585693 
	C484.807251,796.990417 484.834686,801.673279 480.994812,806.239380 
	C473.727997,814.880432 466.496582,823.551331 459.259491,832.217346 
	C455.404724,836.833191 450.268524,837.394592 445.724365,833.673706 
	C441.612946,830.307190 441.435577,825.815002 445.298492,821.032715 
	C449.054657,816.382507 452.867676,811.778320 456.884155,806.881958 
z"/>
<path fill="#0A2A2E" opacity="1.000000" stroke="none" 
	d="
M817.671143,892.422729 
	C812.713074,895.486877 807.745605,899.460754 802.088074,901.658386 
	C784.158813,908.623047 765.608459,912.247986 746.157715,912.124634 
	C690.363159,911.770813 634.564941,912.000000 578.768127,912.000000 
	C569.675110,912.000000 560.574890,911.766663 551.490662,912.049255 
	C533.326538,912.614319 514.898804,909.613342 496.690125,915.787781 
	C502.329742,911.322937 509.379517,910.160767 516.586487,910.152527 
	C593.191589,910.064697 669.796814,910.016541 746.401917,910.080627 
	C771.547180,910.101624 795.193787,904.416565 817.671143,892.422729 
z"/>
<path fill="#062225" opacity="1.000000" stroke="none" 
	d="
M881.478882,683.349487 
	C882.648743,684.127808 884.492798,684.988342 885.076782,686.378296 
	C892.111328,703.120605 896.593872,720.391357 898.221741,738.648376 
	C900.420776,763.310364 896.916870,787.041077 888.270996,809.864868 
	C883.605591,822.180908 876.468750,833.565247 870.344116,845.316345 
	C869.796387,846.367310 868.489380,847.022583 867.176636,847.871338 
	C879.258057,829.141968 888.269592,808.959045 892.976868,786.877869 
	C899.377930,756.851746 897.551819,727.362671 887.569031,698.379272 
	C885.848022,693.382507 883.581909,688.573486 881.478882,683.349487 
z"/>
<path fill="#42EAF5" opacity="1.000000" stroke="none" 
	d="
M443.483673,192.343491 
	C547.100220,192.089066 651.015320,192.095718 755.381165,192.134552 
	C754.070129,192.446991 752.308350,192.971909 750.546448,192.972565 
	C649.771484,193.009674 548.996460,193.004913 448.221497,192.984589 
	C446.741699,192.984283 445.261932,192.736725 443.483673,192.343491 
z"/>
<path fill="#42EAF5" opacity="1.000000" stroke="none" 
	d="
M730.264709,281.012329 
	C640.970581,281.036652 551.977112,281.039886 462.521240,281.052673 
	C461.900513,281.011047 461.664612,281.006195 461.600342,280.898712 
	C461.475098,280.689331 461.445923,280.422394 461.376923,280.179321 
	C462.685242,280.118530 463.993591,280.004639 465.301910,280.004517 
	C552.655762,279.997192 640.009583,279.998627 727.363464,280.003143 
	C728.693054,280.003204 730.022888,280.044373 731.351929,280.087250 
	C731.448547,280.090332 731.539673,280.264832 731.633423,280.359619 
	C731.277405,280.570160 730.921387,280.780701 730.264709,281.012329 
z"/>
<path fill="#48EDF7" opacity="1.000000" stroke="none" 
	d="
M467.482056,328.398376 
	C472.329803,328.100677 477.489838,327.991272 482.649872,327.992645 
	C561.745361,328.013763 640.840820,328.049347 720.386047,328.118347 
	C719.241272,328.436523 717.646851,328.963226 716.052185,328.964020 
	C634.615540,329.005280 553.178894,329.003387 471.742279,328.987701 
	C470.426270,328.987457 469.110352,328.759735 467.482056,328.398376 
z"/>
<path fill="#94F0F8" opacity="1.000000" stroke="none" 
	d="
M615.880371,835.270752 
	C617.753967,835.362122 619.390808,835.957153 621.028442,835.959351 
	C664.372192,836.016785 707.715942,836.013062 751.523315,836.090759 
	C750.385437,836.430176 748.784180,836.931702 747.182373,836.933228 
	C704.988892,836.973694 662.795349,836.979065 620.601990,836.898438 
	C618.948486,836.895325 617.296631,835.985535 615.880371,835.270752 
z"/>
<path fill="#42EAF5" opacity="1.000000" stroke="none" 
	d="
M698.694458,425.743530 
	C655.680054,426.027252 612.346741,426.041718 568.553528,426.059875 
	C567.935974,426.011139 567.705139,426.005035 567.636230,425.896332 
	C567.504944,425.689178 567.466125,425.423431 567.388916,425.182007 
	C568.362000,425.119293 569.335083,425.001953 570.308167,425.001770 
	C611.859070,424.993317 653.409912,424.991394 694.960815,425.015930 
	C696.099121,425.016602 697.237244,425.314850 698.694458,425.743530 
z"/>
<path fill="#062225" opacity="1.000000" stroke="none" 
	d="
M871.925049,666.452576 
	C873.274109,667.303406 875.209045,668.220520 876.043030,669.741394 
	C878.118896,673.526672 879.693420,677.586792 881.233154,681.764038 
	C878.001343,676.925598 875.005554,671.859619 871.925049,666.452576 
z"/>
<path fill="#000000" opacity="1.000000" stroke="none" 
	d="
M661.148926,718.396484 
	C661.088684,724.414734 661.088684,729.987305 661.088684,735.559814 
	C660.861145,735.557678 660.633606,735.555542 660.406067,735.553406 
	C660.406067,726.283569 660.406067,717.013733 660.635620,707.409546 
	C660.979797,710.700317 661.094543,714.325500 661.148926,718.396484 
z"/>
<path fill="#062225" opacity="1.000000" stroke="none" 
	d="
M864.562317,850.965332 
	C864.057434,852.147888 863.276794,853.503418 862.119385,854.878662 
	C862.590576,853.645020 863.438538,852.391602 864.562317,850.965332 
z"/>
<path fill="#062225" opacity="1.000000" stroke="none" 
	d="
M869.664429,663.276184 
	C870.347534,663.834412 871.134827,664.654114 871.900513,665.816406 
	C871.175537,665.285156 870.472107,664.411438 869.664429,663.276184 
z"/>
<path fill="#062225" opacity="1.000000" stroke="none" 
	d="
M866.608276,847.995361 
	C866.414795,848.812988 865.961243,849.805420 865.144714,850.825806 
	C865.303894,849.959290 865.826050,849.064697 866.608276,847.995361 
z"/>
<path fill="#000000" opacity="1.000000" stroke="none" 
	d="
M810.992676,567.994263 
	C815.089294,578.785034 808.562988,585.196411 801.230286,591.053345 
	C795.719543,595.454956 785.762756,595.138184 779.792480,590.944824 
	C772.108643,585.547791 769.679077,578.119385 771.177185,569.148804 
	C772.449524,561.530640 777.980408,557.886536 784.405823,555.018738 
	C785.688110,554.446411 786.681396,553.226807 787.754578,552.349365 
	C797.523865,554.030090 806.122314,557.674683 810.730164,567.801514 
	C811.000000,568.000000 810.992676,567.994263 810.992676,567.994263 
z"/>
<path fill="#000000" opacity="1.000000" stroke="none" 
	d="
M811.002319,568.003174 
	C811.004700,568.006287 811.252441,567.615906 811.252441,567.615906 
	C811.252441,567.615906 811.226501,567.920715 811.109619,567.957520 
	C810.992676,567.994263 811.000000,568.000000 811.002319,568.003174 
z"/>
<path fill="#000000" opacity="1.000000" stroke="none" 
	d="
M798.996765,537.995605 
	C798.993530,537.991211 798.813782,538.353577 798.813782,538.353577 
	C798.813782,538.353577 798.831055,538.122620 798.920166,538.064209 
	C799.009338,538.005737 799.000000,538.000000 798.996765,537.995605 
z"/>
<path fill="#000000" opacity="1.000000" stroke="none" 
	d="
M774.994202,540.003662 
	C774.988403,540.007385 775.344116,540.244263 775.344116,540.244263 
	C775.344116,540.244263 775.089539,540.200928 775.048584,540.095215 
	C775.007690,539.989563 775.000000,540.000000 774.994202,540.003662 
z"/>
<path fill="#58ECF5" opacity="1.000000" stroke="none" 
	d="
M374.919403,959.217651 
	C366.366638,952.005798 364.233063,943.190613 368.583588,934.068176 
	C372.285004,926.306885 381.248505,921.725952 389.724609,923.263855 
	C399.662994,925.067017 406.301208,932.213196 406.979858,941.839111 
	C407.985382,956.101440 393.505768,966.597839 379.717285,961.566467 
	C378.165283,961.000122 376.716675,960.150513 374.919403,959.217651 
z"/>
</svg>